<svg width="511" height="86" viewBox="0 0 511 86" fill="none" xmlns="http://www.w3.org/2000/svg">
<g filter="url(#filter0_d)">
<path d="M65.7188 55.4922L75.2891 4.90625H89.8887L74.1172 76H59.3711L47.7988 28.4414L36.2266 76H21.4805L5.70898 4.90625H20.3086L29.9277 55.3945L41.6465 4.90625H54.0488L65.7188 55.4922ZM111.812 76H97.6523V23.168H111.812V76ZM96.8223 9.49609C96.8223 7.38021 97.5221 5.63867 98.9219 4.27148C100.354 2.9043 102.291 2.2207 104.732 2.2207C107.141 2.2207 109.062 2.9043 110.494 4.27148C111.926 5.63867 112.643 7.38021 112.643 9.49609C112.643 11.6445 111.91 13.4023 110.445 14.7695C109.013 16.1367 107.109 16.8203 104.732 16.8203C102.356 16.8203 100.436 16.1367 98.9707 14.7695C97.5384 13.4023 96.8223 11.6445 96.8223 9.49609ZM142.672 54.8086L137.594 59.8867V76H123.482V1H137.594V42.5527L140.328 39.0371L153.854 23.168H170.797L151.705 45.1895L172.457 76H156.246L142.672 54.8086ZM191.793 76H177.633V23.168H191.793V76ZM176.803 9.49609C176.803 7.38021 177.503 5.63867 178.902 4.27148C180.335 2.9043 182.271 2.2207 184.713 2.2207C187.122 2.2207 189.042 2.9043 190.475 4.27148C191.907 5.63867 192.623 7.38021 192.623 9.49609C192.623 11.6445 191.891 13.4023 190.426 14.7695C188.993 16.1367 187.089 16.8203 184.713 16.8203C182.337 16.8203 180.416 16.1367 178.951 14.7695C177.519 13.4023 176.803 11.6445 176.803 9.49609Z" fill="#B83018"/>
<path d="M241.256 57.3477C241.256 54.5807 240.279 52.4648 238.326 51C236.373 49.5026 232.857 47.9401 227.779 46.3125C222.701 44.6523 218.681 43.0247 215.719 41.4297C207.646 37.0677 203.609 31.1921 203.609 23.8027C203.609 19.9616 204.684 16.5436 206.832 13.5488C209.013 10.5215 212.122 8.16146 216.158 6.46875C220.227 4.77604 224.785 3.92969 229.83 3.92969C234.908 3.92969 239.433 4.85742 243.404 6.71289C247.376 8.53581 250.452 11.1237 252.633 14.4766C254.846 17.8294 255.953 21.638 255.953 25.9023H241.305C241.305 22.6471 240.279 20.1243 238.229 18.334C236.178 16.5111 233.297 15.5996 229.586 15.5996C226.005 15.5996 223.222 16.3646 221.236 17.8945C219.251 19.3919 218.258 21.3776 218.258 23.8516C218.258 26.1628 219.413 28.0996 221.725 29.6621C224.068 31.2246 227.503 32.6895 232.027 34.0566C240.361 36.5632 246.432 39.6719 250.24 43.3828C254.049 47.0938 255.953 51.7161 255.953 57.25C255.953 63.4023 253.626 68.2363 248.971 71.752C244.316 75.235 238.049 76.9766 230.172 76.9766C224.703 76.9766 219.723 75.9837 215.23 73.998C210.738 71.9798 207.304 69.2292 204.928 65.7461C202.584 62.263 201.412 58.2266 201.412 53.6367H216.109C216.109 61.4818 220.797 65.4043 230.172 65.4043C233.655 65.4043 236.373 64.7044 238.326 63.3047C240.279 61.8724 241.256 59.8867 241.256 57.3477ZM289.303 76.9766C281.555 76.9766 275.24 74.6003 270.357 69.8477C265.507 65.0951 263.082 58.7637 263.082 50.8535V49.4863C263.082 44.1803 264.107 39.444 266.158 35.2773C268.209 31.0781 271.106 27.8555 274.85 25.6094C278.626 23.3307 282.923 22.1914 287.74 22.1914C294.967 22.1914 300.647 24.4701 304.781 29.0273C308.948 33.5846 311.031 40.0462 311.031 48.4121V54.1738H277.389C277.844 57.6243 279.212 60.3913 281.49 62.4746C283.801 64.5579 286.715 65.5996 290.23 65.5996C295.667 65.5996 299.915 63.6302 302.975 59.6914L309.908 67.4551C307.792 70.4499 304.928 72.7936 301.314 74.4863C297.701 76.1465 293.697 76.9766 289.303 76.9766ZM287.691 33.6172C284.892 33.6172 282.613 34.5612 280.855 36.4492C279.13 38.3372 278.023 41.0391 277.535 44.5547H297.164V43.4316C297.099 40.3066 296.253 37.8978 294.625 36.2051C292.997 34.4798 290.686 33.6172 287.691 33.6172ZM349.703 76C349.052 74.7305 348.58 73.1517 348.287 71.2637C344.869 75.0723 340.426 76.9766 334.957 76.9766C329.781 76.9766 325.484 75.4792 322.066 72.4844C318.681 69.4896 316.988 65.7135 316.988 61.1562C316.988 55.5573 319.055 51.2604 323.189 48.2656C327.356 45.2708 333.362 43.7572 341.207 43.7246H347.701V40.6973C347.701 38.2559 347.066 36.3027 345.797 34.8379C344.56 33.373 342.59 32.6406 339.889 32.6406C337.512 32.6406 335.641 33.2103 334.273 34.3496C332.939 35.4889 332.271 37.0514 332.271 39.0371H318.16C318.16 35.9772 319.104 33.1452 320.992 30.541C322.88 27.9368 325.549 25.9023 329 24.4375C332.451 22.9401 336.324 22.1914 340.621 22.1914C347.132 22.1914 352.291 23.8353 356.1 27.123C359.941 30.3783 361.861 34.9681 361.861 40.8926V63.793C361.894 68.806 362.594 72.5983 363.961 75.1699V76H349.703ZM338.033 66.1855C340.117 66.1855 342.037 65.7298 343.795 64.8184C345.553 63.8743 346.855 62.6211 347.701 61.0586V51.9766H342.428C335.364 51.9766 331.604 54.418 331.148 59.3008L331.1 60.1309C331.1 61.8887 331.718 63.3372 332.955 64.4766C334.192 65.6159 335.885 66.1855 338.033 66.1855ZM402.389 36.4004C400.468 36.14 398.775 36.0098 397.311 36.0098C391.972 36.0098 388.473 37.8164 386.812 41.4297V76H372.701V23.168H386.031L386.422 29.4668C389.254 24.6165 393.176 22.1914 398.189 22.1914C399.752 22.1914 401.217 22.403 402.584 22.8262L402.389 36.4004ZM430.221 65.5996C432.825 65.5996 434.941 64.8835 436.568 63.4512C438.196 62.0189 439.042 60.1146 439.107 57.7383H452.34C452.307 61.319 451.331 64.6068 449.41 67.6016C447.49 70.5638 444.853 72.875 441.5 74.5352C438.18 76.1628 434.501 76.9766 430.465 76.9766C422.913 76.9766 416.956 74.584 412.594 69.7988C408.232 64.9811 406.051 58.3405 406.051 49.877V48.9492C406.051 40.8112 408.215 34.3171 412.545 29.4668C416.874 24.6165 422.815 22.1914 430.367 22.1914C436.975 22.1914 442.265 24.0794 446.236 27.8555C450.24 31.599 452.275 36.5957 452.34 42.8457H439.107C439.042 40.1113 438.196 37.8978 436.568 36.2051C434.941 34.4798 432.792 33.6172 430.123 33.6172C426.835 33.6172 424.345 34.8216 422.652 37.2305C420.992 39.6068 420.162 43.4805 420.162 48.8516V50.3164C420.162 55.7526 420.992 59.6589 422.652 62.0352C424.312 64.4115 426.835 65.5996 430.221 65.5996ZM474.166 28.9297C477.91 24.4375 482.613 22.1914 488.277 22.1914C499.736 22.1914 505.546 28.8483 505.709 42.1621V76H491.598V42.5527C491.598 39.5254 490.947 37.2956 489.645 35.8633C488.342 34.3984 486.178 33.666 483.15 33.666C479.016 33.666 476.021 35.2611 474.166 38.4512V76H460.055V1H474.166V28.9297Z" fill="#002737"/>
<path d="M65.7188 55.4922L64.7443 55.717L66.7013 55.6781L65.7188 55.4922ZM75.2891 4.90625V3.90625H74.4605L74.3065 4.72036L75.2891 4.90625ZM89.8887 4.90625L90.8649 5.12283L91.1348 3.90625H89.8887V4.90625ZM74.1172 76V77H74.9197L75.0935 76.2166L74.1172 76ZM59.3711 76L58.3994 76.2364L58.5852 77H59.3711V76ZM47.7988 28.4414L48.7705 28.205H46.8272L47.7988 28.4414ZM36.2266 76V77H37.0124L37.1982 76.2364L36.2266 76ZM21.4805 76L20.5042 76.2166L20.678 77H21.4805V76ZM5.70898 4.90625V3.90625H4.46283L4.73272 5.12283L5.70898 4.90625ZM20.3086 4.90625L21.2909 4.71909L21.1361 3.90625H20.3086V4.90625ZM29.9277 55.3945L28.9454 55.5817L30.9018 55.6206L29.9277 55.3945ZM41.6465 4.90625V3.90625H40.852L40.6724 4.68015L41.6465 4.90625ZM54.0488 4.90625L55.0232 4.68146L54.8444 3.90625H54.0488V4.90625ZM66.7013 55.6781L76.2716 5.09214L74.3065 4.72036L64.7362 55.3063L66.7013 55.6781ZM75.2891 5.90625H89.8887V3.90625H75.2891V5.90625ZM88.9124 4.68967L73.1409 75.7834L75.0935 76.2166L90.8649 5.12283L88.9124 4.68967ZM74.1172 75H59.3711V77H74.1172V75ZM60.3427 75.7636L48.7705 28.205L46.8272 28.6778L58.3994 76.2364L60.3427 75.7636ZM46.8272 28.205L35.2549 75.7636L37.1982 76.2364L48.7705 28.6778L46.8272 28.205ZM36.2266 75H21.4805V77H36.2266V75ZM22.4567 75.7834L6.68525 4.68967L4.73272 5.12283L20.5042 76.2166L22.4567 75.7834ZM5.70898 5.90625H20.3086V3.90625H5.70898V5.90625ZM19.3263 5.09341L28.9454 55.5817L30.9101 55.2074L21.2909 4.71909L19.3263 5.09341ZM30.9018 55.6206L42.6206 5.13235L40.6724 4.68015L28.9536 55.1684L30.9018 55.6206ZM41.6465 5.90625H54.0488V3.90625H41.6465V5.90625ZM53.0744 5.13104L64.7443 55.717L66.6932 55.2674L55.0232 4.68146L53.0744 5.13104ZM111.812 76V77H112.812V76H111.812ZM97.6523 76H96.6523V77H97.6523V76ZM97.6523 23.168V22.168H96.6523V23.168H97.6523ZM111.812 23.168H112.812V22.168H111.812V23.168ZM98.9219 4.27148L98.2314 3.54808L98.2231 3.55611L98.9219 4.27148ZM110.445 14.7695L109.763 14.0384L109.755 14.0462L110.445 14.7695ZM98.9707 14.7695L98.2802 15.4929L98.2884 15.5006L98.9707 14.7695ZM111.812 75H97.6523V77H111.812V75ZM98.6523 76V23.168H96.6523V76H98.6523ZM97.6523 24.168H111.812V22.168H97.6523V24.168ZM110.812 23.168V76H112.812V23.168H110.812ZM97.8223 9.49609C97.8223 7.62522 98.4302 6.14956 99.6206 4.98686L98.2231 3.55611C96.614 5.12778 95.8223 7.1352 95.8223 9.49609H97.8223ZM99.6124 4.99484C100.817 3.84449 102.485 3.2207 104.732 3.2207V1.2207C102.097 1.2207 99.8908 1.96411 98.2314 3.54813L99.6124 4.99484ZM104.732 3.2207C106.943 3.2207 108.596 3.84212 109.804 4.99484L111.185 3.54813C109.528 1.96648 107.34 1.2207 104.732 1.2207V3.2207ZM109.804 4.99484C111.024 6.15936 111.643 7.63257 111.643 9.49609H113.643C113.643 7.12784 112.829 5.11798 111.185 3.54813L109.804 4.99484ZM111.643 9.49609C111.643 11.3897 111.009 12.8752 109.763 14.0385L111.128 15.5006C112.811 13.9295 113.643 11.8993 113.643 9.49609H111.643ZM109.755 14.0462C108.545 15.2013 106.906 15.8203 104.732 15.8203V17.8203C107.311 17.8203 109.481 17.0721 111.136 15.4929L109.755 14.0462ZM104.732 15.8203C102.559 15.8203 100.899 15.2015 99.653 14.0385L98.2884 15.5006C99.972 17.072 102.153 17.8203 104.732 17.8203V15.8203ZM99.6612 14.0462C98.4445 12.8848 97.8223 11.3971 97.8223 9.49609H95.8223C95.8223 11.892 96.6323 13.9199 98.2802 15.4929L99.6612 14.0462ZM142.672 54.8086L143.514 54.2692L142.844 53.2227L141.965 54.1015L142.672 54.8086ZM137.594 59.8867L136.887 59.1796L136.594 59.4725V59.8867H137.594ZM137.594 76V77H138.594V76H137.594ZM123.482 76H122.482V77H123.482V76ZM123.482 1V0H122.482V1H123.482ZM137.594 1H138.594V0H137.594V1ZM137.594 42.5527H136.594V45.4673L138.383 43.1667L137.594 42.5527ZM140.328 39.0371L139.567 38.3884L139.553 38.4055L139.539 38.4232L140.328 39.0371ZM153.854 23.168V22.168H153.392L153.092 22.5193L153.854 23.168ZM170.797 23.168L171.552 23.823L172.987 22.168H170.797V23.168ZM151.705 45.1895L150.949 44.5344L150.448 45.113L150.876 45.7481L151.705 45.1895ZM172.457 76V77H174.336L173.286 75.4414L172.457 76ZM156.246 76L155.404 76.5394L155.699 77H156.246V76ZM141.965 54.1015L136.887 59.1796L138.301 60.5938L143.379 55.5157L141.965 54.1015ZM136.594 59.8867V76H138.594V59.8867H136.594ZM137.594 75H123.482V77H137.594V75ZM124.482 76V1H122.482V76H124.482ZM123.482 2H137.594V0H123.482V2ZM136.594 1V42.5527H138.594V1H136.594ZM138.383 43.1667L141.117 39.651L139.539 38.4232L136.804 41.9388L138.383 43.1667ZM141.089 39.6858L154.615 23.8166L153.092 22.5193L139.567 38.3884L141.089 39.6858ZM153.854 24.168H170.797V22.168H153.854V24.168ZM170.041 22.5129L150.949 44.5344L152.461 45.8445L171.552 23.823L170.041 22.5129ZM150.876 45.7481L171.628 76.5586L173.286 75.4414L152.534 44.6308L150.876 45.7481ZM172.457 75H156.246V77H172.457V75ZM157.088 75.4606L143.514 54.2692L141.83 55.348L155.404 76.5394L157.088 75.4606ZM191.793 76V77H192.793V76H191.793ZM177.633 76H176.633V77H177.633V76ZM177.633 23.168V22.168H176.633V23.168H177.633ZM191.793 23.168H192.793V22.168H191.793V23.168ZM178.902 4.27148L178.212 3.54808L178.204 3.55611L178.902 4.27148ZM190.426 14.7695L189.743 14.0384L189.735 14.0462L190.426 14.7695ZM178.951 14.7695L178.261 15.4929L178.269 15.5006L178.951 14.7695ZM191.793 75H177.633V77H191.793V75ZM178.633 76V23.168H176.633V76H178.633ZM177.633 24.168H191.793V22.168H177.633V24.168ZM190.793 23.168V76H192.793V23.168H190.793ZM177.803 9.49609C177.803 7.62522 178.411 6.14956 179.601 4.98686L178.204 3.55611C176.595 5.12778 175.803 7.1352 175.803 9.49609H177.803ZM179.593 4.99484C180.798 3.84449 182.466 3.2207 184.713 3.2207V1.2207C182.077 1.2207 179.871 1.96411 178.212 3.54813L179.593 4.99484ZM184.713 3.2207C186.924 3.2207 188.577 3.84212 189.784 4.99484L191.165 3.54813C189.508 1.96648 187.32 1.2207 184.713 1.2207V3.2207ZM189.784 4.99484C191.004 6.15936 191.623 7.63257 191.623 9.49609H193.623C193.623 7.12784 192.81 5.11798 191.165 3.54813L189.784 4.99484ZM191.623 9.49609C191.623 11.3897 190.99 12.8752 189.743 14.0385L191.108 15.5006C192.791 13.9295 193.623 11.8993 193.623 9.49609H191.623ZM189.735 14.0462C188.525 15.2013 186.887 15.8203 184.713 15.8203V17.8203C187.292 17.8203 189.462 17.0721 191.116 15.4929L189.735 14.0462ZM184.713 15.8203C182.54 15.8203 180.88 15.2015 179.633 14.0385L178.269 15.5006C179.952 17.072 182.133 17.8203 184.713 17.8203V15.8203ZM179.642 14.0462C178.425 12.8848 177.803 11.3971 177.803 9.49609H175.803C175.803 11.892 176.613 13.9199 178.261 15.4929L179.642 14.0462ZM238.326 51L237.718 51.7937L237.726 51.8L238.326 51ZM227.779 46.3125L227.469 47.263L227.474 47.2648L227.779 46.3125ZM215.719 41.4297L215.243 42.3095L215.245 42.3102L215.719 41.4297ZM206.832 13.5488L206.021 12.9643L206.019 12.9659L206.832 13.5488ZM216.158 6.46875L215.774 5.54545L215.771 5.54656L216.158 6.46875ZM243.404 6.71289L242.981 7.6189L242.987 7.62172L243.404 6.71289ZM252.633 14.4766L251.795 15.0218L251.798 15.0275L252.633 14.4766ZM255.953 25.9023V26.9023H256.953V25.9023H255.953ZM241.305 25.9023H240.305V26.9023H241.305V25.9023ZM238.229 18.334L237.564 19.0814L237.571 19.0873L238.229 18.334ZM221.236 17.8945L221.838 18.693L221.847 18.6867L221.236 17.8945ZM221.725 29.6621L221.165 30.4906L221.17 30.4942L221.725 29.6621ZM232.027 34.0566L231.738 35.0139L231.739 35.0143L232.027 34.0566ZM248.971 71.752L249.57 72.5526L249.573 72.5499L248.971 71.752ZM215.23 73.998L214.821 74.9102L214.826 74.9127L215.23 73.998ZM204.928 65.7461L204.098 66.3044L204.102 66.3097L204.928 65.7461ZM201.412 53.6367V52.6367H200.412V53.6367H201.412ZM216.109 53.6367H217.109V52.6367H216.109V53.6367ZM238.326 63.3047L238.909 64.1176L238.918 64.1111L238.326 63.3047ZM242.256 57.3477C242.256 54.314 241.167 51.8808 238.926 50.2L237.726 51.8C239.391 53.0489 240.256 54.8475 240.256 57.3477H242.256ZM238.935 50.2064C236.834 48.5962 233.175 46.9917 228.085 45.3602L227.474 47.2648C232.54 48.8885 235.912 50.409 237.718 51.7936L238.935 50.2064ZM228.09 45.362C223.04 43.7109 219.082 42.1047 216.193 40.5492L215.245 42.3102C218.28 43.9448 222.363 45.5938 227.469 47.263L228.09 45.362ZM216.194 40.5499C208.352 36.3126 204.609 30.7304 204.609 23.8027H202.609C202.609 31.6537 206.94 37.8228 215.243 42.3095L216.194 40.5499ZM204.609 23.8027C204.609 20.1613 205.623 16.9491 207.645 14.1317L206.019 12.9659C203.744 16.1381 202.609 19.7619 202.609 23.8027H204.609ZM207.643 14.1334C209.699 11.2798 212.649 9.02488 216.545 7.39094L215.771 5.54656C211.595 7.29803 208.327 9.7632 206.021 12.9643L207.643 14.1334ZM216.542 7.39205C220.473 5.75678 224.897 4.92969 229.83 4.92969V2.92969C224.672 2.92969 219.981 3.7953 215.774 5.54545L216.542 7.39205ZM229.83 4.92969C234.785 4.92969 239.162 5.83441 242.981 7.61888L243.828 5.8069C239.704 3.88043 235.031 2.92969 229.83 2.92969V4.92969ZM242.987 7.62172C246.803 9.3733 249.726 11.8421 251.795 15.0218L253.471 13.9313C251.177 10.4053 247.948 7.69832 243.821 5.80406L242.987 7.62172ZM251.798 15.0275C253.897 18.2067 254.953 21.8213 254.953 25.9023H256.953C256.953 21.4548 255.796 17.4522 253.467 13.9256L251.798 15.0275ZM255.953 24.9023H241.305V26.9023H255.953V24.9023ZM242.305 25.9023C242.305 22.4203 241.197 19.5982 238.886 17.5807L237.571 19.0873C239.361 20.6505 240.305 22.874 240.305 25.9023H242.305ZM238.893 17.5866C236.603 15.5511 233.455 14.5996 229.586 14.5996V16.5996C233.139 16.5996 235.753 17.4711 237.564 19.0814L238.893 17.5866ZM229.586 14.5996C225.876 14.5996 222.848 15.3907 220.626 17.1024L221.847 18.6867C223.596 17.3385 226.134 16.5996 229.586 16.5996V14.5996ZM220.634 17.0961C218.4 18.7813 217.258 21.0618 217.258 23.8516H219.258C219.258 21.6934 220.102 20.0026 221.838 18.693L220.634 17.0961ZM217.258 23.8516C217.258 26.5664 218.643 28.7861 221.165 30.4906L222.285 28.8337C220.183 27.4131 219.258 25.7591 219.258 23.8516H217.258ZM221.17 30.4942C223.632 32.1357 227.174 33.6347 231.738 35.0139L232.317 33.0994C227.831 31.7442 224.504 30.3135 222.279 28.8301L221.17 30.4942ZM231.739 35.0143C240.006 37.5006 245.9 40.5501 249.542 44.099L250.938 42.6666C246.963 38.7937 240.716 35.6257 232.315 33.099L231.739 35.0143ZM249.542 44.099C253.149 47.6133 254.953 51.9736 254.953 57.25H256.953C256.953 51.4587 254.949 46.5742 250.938 42.6666L249.542 44.099ZM254.953 57.25C254.953 63.1088 252.757 67.6391 248.368 70.954L249.573 72.5499C254.494 68.8336 256.953 63.6959 256.953 57.25H254.953ZM248.372 70.9513C243.942 74.266 237.909 75.9766 230.172 75.9766V77.9766C238.19 77.9766 244.69 76.2041 249.57 72.5526L248.372 70.9513ZM230.172 75.9766C224.827 75.9766 219.986 75.0067 215.635 73.0834L214.826 74.9127C219.459 76.9607 224.58 77.9766 230.172 77.9766V75.9766ZM215.64 73.0859C211.288 71.1304 208.01 68.4892 205.754 65.1825L204.102 66.3097C206.598 69.9691 210.189 72.8293 214.821 74.9102L215.64 73.0859ZM205.757 65.1878C203.535 61.8851 202.412 58.047 202.412 53.6367H200.412C200.412 58.4061 201.633 62.6409 204.098 66.3044L205.757 65.1878ZM201.412 54.6367H216.109V52.6367H201.412V54.6367ZM215.109 53.6367C215.109 57.7648 216.351 61.0268 218.983 63.2293C221.581 65.4033 225.369 66.4043 230.172 66.4043V64.4043C225.599 64.4043 222.356 63.444 220.267 61.6955C218.211 59.9755 217.109 57.3537 217.109 53.6367H215.109ZM230.172 66.4043C233.774 66.4043 236.725 65.6826 238.909 64.1175L237.744 62.4919C236.021 63.7263 233.536 64.4043 230.172 64.4043V66.4043ZM238.918 64.1111C241.142 62.48 242.256 60.1872 242.256 57.3477H240.256C240.256 59.5863 239.417 61.2648 237.735 62.4983L238.918 64.1111ZM270.357 69.8477L269.658 70.5619L269.66 70.5643L270.357 69.8477ZM266.158 35.2773L267.055 35.7189L267.057 35.7162L266.158 35.2773ZM274.85 25.6094L275.364 26.4669L275.366 26.4656L274.85 25.6094ZM304.781 29.0273L304.041 29.6992L304.043 29.7021L304.781 29.0273ZM311.031 54.1738V55.1738H312.031V54.1738H311.031ZM277.389 54.1738V53.1738H276.248L276.397 54.3048L277.389 54.1738ZM281.49 62.4746L280.815 63.2127L280.821 63.2174L281.49 62.4746ZM302.975 59.6914L303.72 59.0253L302.921 58.1302L302.185 59.0779L302.975 59.6914ZM309.908 67.4551L310.725 68.0321L311.184 67.3823L310.654 66.789L309.908 67.4551ZM301.314 74.4863L301.732 75.395L301.739 75.3919L301.314 74.4863ZM280.855 36.4492L280.124 35.7678L280.117 35.7746L280.855 36.4492ZM277.535 44.5547L276.545 44.4171L276.387 45.5547H277.535V44.5547ZM297.164 44.5547V45.5547H298.164V44.5547H297.164ZM297.164 43.4316H298.164V43.4212L298.164 43.4108L297.164 43.4316ZM294.625 36.2051L293.898 36.8913L293.904 36.8982L294.625 36.2051ZM289.303 75.9766C281.777 75.9766 275.725 73.6766 271.055 69.1311L269.66 70.5643C274.755 75.5239 281.333 77.9766 289.303 77.9766V75.9766ZM271.057 69.1334C266.431 64.6 264.082 58.5429 264.082 50.8535H262.082C262.082 58.9844 264.584 65.5901 269.658 70.5619L271.057 69.1334ZM264.082 50.8535V49.4863H262.082V50.8535H264.082ZM264.082 49.4863C264.082 44.3116 265.081 39.7298 267.055 35.7189L265.261 34.8357C263.134 39.1582 262.082 44.0491 262.082 49.4863H264.082ZM267.057 35.7162C269.029 31.6779 271.798 28.6064 275.364 26.4669L274.335 24.7519C270.414 27.1046 267.389 30.4784 265.26 34.8385L267.057 35.7162ZM275.366 26.4656C278.972 24.2896 283.087 23.1914 287.74 23.1914V21.1914C282.758 21.1914 278.279 22.3719 274.333 24.7532L275.366 26.4656ZM287.74 23.1914C294.739 23.1914 300.129 25.3877 304.041 29.6992L305.522 28.3555C301.165 23.5524 295.195 21.1914 287.74 21.1914V23.1914ZM304.043 29.7021C307.989 34.0181 310.031 40.2062 310.031 48.4121H312.031C312.031 39.8863 309.907 33.1512 305.519 28.3526L304.043 29.7021ZM310.031 48.4121V54.1738H312.031V48.4121H310.031ZM311.031 53.1738H277.389V55.1738H311.031V53.1738ZM276.397 54.3048C276.88 57.957 278.341 60.9503 280.815 63.2126L282.165 61.7366C280.082 59.8323 278.809 57.2917 278.38 54.0429L276.397 54.3048ZM280.821 63.2174C283.34 65.488 286.502 66.5996 290.23 66.5996V64.5996C286.928 64.5996 284.263 63.6279 282.16 61.7318L280.821 63.2174ZM290.23 66.5996C295.944 66.5996 300.496 64.5117 303.764 60.3049L302.185 59.0779C299.333 62.7487 295.39 64.5996 290.23 64.5996V66.5996ZM302.229 60.3575L309.162 68.1212L310.654 66.789L303.72 59.0253L302.229 60.3575ZM309.091 66.878C307.084 69.7188 304.361 71.955 300.89 73.5808L301.739 75.3919C305.495 73.6322 308.5 71.1809 310.725 68.0321L309.091 66.878ZM300.897 73.5777C297.428 75.1716 293.568 75.9766 289.303 75.9766V77.9766C293.826 77.9766 297.975 77.1214 301.732 75.395L300.897 73.5777ZM287.691 32.6172C284.641 32.6172 282.088 33.6581 280.124 35.7678L281.587 37.1306C283.139 35.4643 285.143 34.6172 287.691 34.6172V32.6172ZM280.117 35.7746C278.212 37.8597 277.05 40.7764 276.545 44.4171L278.526 44.6923C278.997 41.3017 280.049 38.8147 281.594 37.1238L280.117 35.7746ZM277.535 45.5547H297.164V43.5547H277.535V45.5547ZM298.164 44.5547V43.4316H296.164V44.5547H298.164ZM298.164 43.4108C298.095 40.1196 297.199 37.4389 295.346 35.512L293.904 36.8982C295.307 38.3567 296.103 40.4937 296.164 43.4525L298.164 43.4108ZM295.352 35.5189C293.489 33.5436 290.885 32.6172 287.691 32.6172V34.6172C290.488 34.6172 292.506 35.4161 293.898 36.8913L295.352 35.5189ZM349.703 76L348.813 76.4563L349.092 77H349.703V76ZM348.287 71.2637L349.275 71.1103L348.952 69.0258L347.543 70.5958L348.287 71.2637ZM322.066 72.4844L321.404 73.2334L321.407 73.2365L322.066 72.4844ZM323.189 48.2656L322.606 47.4536L322.603 47.4558L323.189 48.2656ZM341.207 43.7246L341.207 42.7246L341.203 42.7246L341.207 43.7246ZM347.701 43.7246V44.7246H348.701V43.7246H347.701ZM345.797 34.8379L345.033 35.4831L345.041 35.4928L345.797 34.8379ZM334.273 34.3496L333.633 33.5813L333.624 33.589L334.273 34.3496ZM332.271 39.0371V40.0371H333.271V39.0371H332.271ZM318.16 39.0371H317.16V40.0371H318.16V39.0371ZM329 24.4375L329.391 25.358L329.398 25.3548L329 24.4375ZM356.1 27.123L355.446 27.88L355.453 27.8859L356.1 27.123ZM361.861 63.793H360.861L360.861 63.7995L361.861 63.793ZM363.961 75.1699H364.961V74.9206L364.844 74.7005L363.961 75.1699ZM363.961 76V77H364.961V76H363.961ZM343.795 64.8184L344.255 65.7061L344.262 65.7028L344.268 65.6994L343.795 64.8184ZM347.701 61.0586L348.58 61.5349L348.701 61.312V61.0586H347.701ZM347.701 51.9766H348.701V50.9766H347.701V51.9766ZM331.148 59.3008L330.153 59.2079L330.151 59.2249L330.15 59.2421L331.148 59.3008ZM331.1 60.1309L330.101 60.0721L330.1 60.1015V60.1309H331.1ZM350.593 75.5437C350.004 74.3953 349.557 72.9262 349.275 71.1103L347.299 71.417C347.603 73.3772 348.1 75.0656 348.813 76.4563L350.593 75.5437ZM347.543 70.5958C344.329 74.1772 340.164 75.9766 334.957 75.9766V77.9766C340.688 77.9766 345.41 75.9673 349.031 71.9316L347.543 70.5958ZM334.957 75.9766C329.988 75.9766 325.936 74.5451 322.725 71.7322L321.407 73.2365C325.033 76.4133 329.575 77.9766 334.957 77.9766V75.9766ZM322.729 71.7354C319.56 68.9322 317.988 65.4298 317.988 61.1562H315.988C315.988 65.9973 317.802 70.047 321.404 73.2334L322.729 71.7354ZM317.988 61.1562C317.988 55.8418 319.93 51.862 323.776 49.0755L322.603 47.4558C318.181 50.6589 315.988 55.2728 315.988 61.1562H317.988ZM323.773 49.0776C327.703 46.2531 333.471 44.7567 341.211 44.7246L341.203 42.7246C333.253 42.7576 327.009 44.2886 322.606 47.4536L323.773 49.0776ZM341.207 44.7246H347.701V42.7246H341.207V44.7246ZM348.701 43.7246V40.6973H346.701V43.7246H348.701ZM348.701 40.6973C348.701 38.0797 348.017 35.873 346.553 34.183L345.041 35.4928C346.116 36.7325 346.701 38.432 346.701 40.6973H348.701ZM346.561 34.1927C345.066 32.422 342.76 31.6406 339.889 31.6406V33.6406C342.421 33.6406 344.054 34.3241 345.033 35.4831L346.561 34.1927ZM339.889 31.6406C337.357 31.6406 335.233 32.2486 333.633 33.5814L334.914 35.1178C336.049 34.172 337.667 33.6406 339.889 33.6406V31.6406ZM333.624 33.589C332.036 34.9446 331.271 36.8019 331.271 39.0371H333.271C333.271 37.301 333.841 36.0332 334.923 35.1102L333.624 33.589ZM332.271 38.0371H318.16V40.0371H332.271V38.0371ZM319.16 39.0371C319.16 36.1993 320.031 33.5708 321.802 31.128L320.183 29.954C318.178 32.7196 317.16 35.7552 317.16 39.0371H319.16ZM321.802 31.128C323.567 28.6939 326.08 26.7637 329.391 25.358L328.609 23.517C325.019 25.041 322.194 27.1798 320.183 29.954L321.802 31.128ZM329.398 25.3548C332.706 23.9192 336.442 23.1914 340.621 23.1914V21.1914C336.207 21.1914 332.195 21.961 328.602 23.5202L329.398 25.3548ZM340.621 23.1914C346.964 23.1914 351.867 24.7904 355.446 27.88L356.753 26.3661C352.715 22.8801 347.299 21.1914 340.621 21.1914V23.1914ZM355.453 27.8859C359.03 30.9169 360.861 35.2045 360.861 40.8926H362.861C362.861 34.7317 360.852 29.8396 356.746 26.3602L355.453 27.8859ZM360.861 40.8926V63.793H362.861V40.8926H360.861ZM360.861 63.7995C360.894 68.8729 361.599 72.8567 363.078 75.6393L364.844 74.7005C363.589 72.3399 362.893 68.7391 362.861 63.7865L360.861 63.7995ZM362.961 75.1699V76H364.961V75.1699H362.961ZM363.961 75H349.703V77H363.961V75ZM338.033 67.1855C340.268 67.1855 342.348 66.6952 344.255 65.7061L343.335 63.9306C341.726 64.7644 339.965 65.1855 338.033 65.1855V67.1855ZM344.268 65.6994C346.176 64.6747 347.63 63.2896 348.58 61.5349L346.822 60.5823C346.08 61.9526 344.929 63.074 343.322 63.9374L344.268 65.6994ZM348.701 61.0586V51.9766H346.701V61.0586H348.701ZM347.701 50.9766H342.428V52.9766H347.701V50.9766ZM342.428 50.9766C338.805 50.9766 335.876 51.5985 333.765 52.9689C331.603 54.3733 330.406 56.4947 330.153 59.2079L332.144 59.3937C332.347 57.224 333.258 55.6833 334.855 54.6463C336.504 53.5753 338.987 52.9766 342.428 52.9766V50.9766ZM330.15 59.2421L330.101 60.0721L332.098 60.1896L332.147 59.3595L330.15 59.2421ZM330.1 60.1309C330.1 62.1539 330.825 63.874 332.278 65.2121L333.633 63.741C332.611 62.8005 332.1 61.6235 332.1 60.1309H330.1ZM332.278 65.2121C333.746 66.5648 335.706 67.1855 338.033 67.1855V65.1855C336.064 65.1855 334.638 64.667 333.633 63.741L332.278 65.2121ZM402.389 36.4004L402.254 37.3913L403.372 37.5429L403.389 36.4148L402.389 36.4004ZM386.812 41.4297L385.904 41.0122L385.812 41.2109V41.4297H386.812ZM386.812 76V77H387.812V76H386.812ZM372.701 76H371.701V77H372.701V76ZM372.701 23.168V22.168H371.701V23.168H372.701ZM386.031 23.168L387.029 23.1061L386.971 22.168H386.031V23.168ZM386.422 29.4668L385.424 29.5287L385.627 32.8108L387.285 29.971L386.422 29.4668ZM402.584 22.8262L403.584 22.8406L403.595 22.0922L402.88 21.8709L402.584 22.8262ZM402.523 35.4095C400.571 35.1448 398.832 35.0098 397.311 35.0098V37.0098C398.719 37.0098 400.365 37.1351 402.254 37.3913L402.523 35.4095ZM397.311 35.0098C391.74 35.0098 387.784 36.9194 385.904 41.0122L387.721 41.8472C389.161 38.7134 392.204 37.0098 397.311 37.0098V35.0098ZM385.812 41.4297V76H387.812V41.4297H385.812ZM386.812 75H372.701V77H386.812V75ZM373.701 76V23.168H371.701V76H373.701ZM372.701 24.168H386.031V22.168H372.701V24.168ZM385.033 23.2299L385.424 29.5287L387.42 29.4049L387.029 23.1061L385.033 23.2299ZM387.285 29.971C389.964 25.3833 393.581 23.1914 398.189 23.1914V21.1914C392.772 21.1914 388.544 23.8498 385.558 28.9626L387.285 29.971ZM398.189 23.1914C399.661 23.1914 401.025 23.3905 402.288 23.7815L402.88 21.8709C401.408 21.4155 399.843 21.1914 398.189 21.1914V23.1914ZM401.584 22.8118L401.389 36.386L403.389 36.4148L403.584 22.8406L401.584 22.8118ZM436.568 63.4512L435.908 62.7005L436.568 63.4512ZM439.107 57.7383V56.7383H438.134L438.108 57.7109L439.107 57.7383ZM452.34 57.7383L453.34 57.7474L453.349 56.7383H452.34V57.7383ZM449.41 67.6016L450.249 68.1456L450.252 68.1414L449.41 67.6016ZM441.5 74.5352L441.94 75.4331L441.944 75.4313L441.5 74.5352ZM412.594 69.7988L411.852 70.47L411.855 70.4725L412.594 69.7988ZM412.545 29.4668L411.799 28.8009L412.545 29.4668ZM446.236 27.8555L445.547 28.5802L445.553 28.5859L446.236 27.8555ZM452.34 42.8457V43.8457H453.35L453.34 42.8353L452.34 42.8457ZM439.107 42.8457L438.108 42.8695L438.131 43.8457H439.107V42.8457ZM436.568 36.2051L435.841 36.8913L435.848 36.8982L436.568 36.2051ZM422.652 37.2305L421.834 36.6555L421.833 36.6578L422.652 37.2305ZM422.652 62.0352L421.833 62.6079L421.833 62.6079L422.652 62.0352ZM430.221 66.5996C433.017 66.5996 435.384 65.8258 437.229 64.2019L435.908 62.7005C434.498 63.9411 432.633 64.5996 430.221 64.5996V66.5996ZM437.229 64.2019C439.087 62.5672 440.035 60.3899 440.107 57.7657L438.108 57.7109C438.049 59.8393 437.305 61.4705 435.908 62.7005L437.229 64.2019ZM439.107 58.7383H452.34V56.7383H439.107V58.7383ZM451.34 57.7292C451.309 61.1229 450.387 64.2265 448.568 67.0617L450.252 68.1414C452.275 64.987 453.306 61.5151 453.34 57.7474L451.34 57.7292ZM448.571 67.0575C446.754 69.8599 444.258 72.0536 441.056 73.639L441.944 75.4313C445.448 73.6964 448.225 71.2677 450.249 68.1456L448.571 67.0575ZM441.06 73.6372C437.889 75.1917 434.363 75.9766 430.465 75.9766V77.9766C434.64 77.9766 438.471 77.1338 441.94 75.4331L441.06 73.6372ZM430.465 75.9766C423.143 75.9766 417.473 73.6673 413.333 69.1252L411.855 70.4725C416.438 75.5006 422.683 77.9766 430.465 77.9766V75.9766ZM413.335 69.1277C409.185 64.5439 407.051 58.1694 407.051 49.877H405.051C405.051 58.5116 407.279 65.4184 411.852 70.47L413.335 69.1277ZM407.051 49.877V48.9492H405.051V49.877H407.051ZM407.051 48.9492C407.051 40.9926 409.163 34.7569 413.291 30.1327L411.799 28.8009C407.268 33.8772 405.051 40.6298 405.051 48.9492H407.051ZM413.291 30.1327C417.399 25.5301 423.049 23.1914 430.367 23.1914V21.1914C422.581 21.1914 416.349 23.703 411.799 28.8009L413.291 30.1327ZM430.367 23.1914C436.775 23.1914 441.799 25.016 445.547 28.5802L446.925 27.1308C442.731 23.1428 437.176 21.1914 430.367 21.1914V23.1914ZM445.553 28.5859C449.329 32.1159 451.277 36.8374 451.34 42.8561L453.34 42.8353C453.272 36.354 451.152 31.082 446.919 27.125L445.553 28.5859ZM452.34 41.8457H439.107V43.8457H452.34V41.8457ZM440.107 42.8219C440.037 39.8813 439.118 37.4144 437.289 35.512L435.848 36.8982C437.273 38.3812 438.048 40.3413 438.108 42.8695L440.107 42.8219ZM437.296 35.5189C435.455 33.5672 433.03 32.6172 430.123 32.6172V34.6172C432.555 34.6172 434.427 35.3924 435.841 36.8913L437.296 35.5189ZM430.123 32.6172C426.554 32.6172 423.738 33.946 421.834 36.6555L423.471 37.8054C424.952 35.6973 427.117 34.6172 430.123 34.6172V32.6172ZM421.833 36.6578C419.991 39.2933 419.162 43.4261 419.162 48.8516H421.162C421.162 43.5349 421.993 39.9202 423.472 37.8032L421.833 36.6578ZM419.162 48.8516V50.3164H421.162V48.8516H419.162ZM419.162 50.3164C419.162 55.8039 419.99 59.9709 421.833 62.6079L423.472 61.4624C421.994 59.3468 421.162 55.7013 421.162 50.3164H419.162ZM421.833 62.6079C423.713 65.2997 426.572 66.5996 430.221 66.5996V64.5996C427.099 64.5996 424.912 63.5232 423.472 61.4624L421.833 62.6079ZM474.166 28.9297H473.166V31.6917L474.934 29.5699L474.166 28.9297ZM505.709 42.1621L506.709 42.1621L506.709 42.1499L505.709 42.1621ZM505.709 76V77H506.709V76H505.709ZM491.598 76H490.598V77H491.598V76ZM489.645 35.8633L488.897 36.5277L488.905 36.536L489.645 35.8633ZM474.166 38.4512L473.302 37.9484L473.166 38.1815V38.4512H474.166ZM474.166 76V77H475.166V76H474.166ZM460.055 76H459.055V77H460.055V76ZM460.055 1V0H459.055V1H460.055ZM474.166 1H475.166V0H474.166V1ZM474.934 29.5699C478.495 25.2972 482.921 23.1914 488.277 23.1914V21.1914C482.306 21.1914 477.324 23.5778 473.398 28.2895L474.934 29.5699ZM488.277 23.1914C493.809 23.1914 497.813 24.7913 500.476 27.8417C503.162 30.9197 504.629 35.6389 504.709 42.1743L506.709 42.1499C506.626 35.3715 505.106 30.1054 501.982 26.5265C498.834 22.92 494.204 21.1914 488.277 21.1914V23.1914ZM504.709 42.1621V76H506.709V42.1621H504.709ZM505.709 75H491.598V77H505.709V75ZM492.598 76V42.5527H490.598V76H492.598ZM492.598 42.5527C492.598 39.411 491.926 36.8868 490.384 35.1906L488.905 36.536C489.967 37.7044 490.598 39.6397 490.598 42.5527H492.598ZM490.392 35.1989C488.817 33.4272 486.309 32.666 483.15 32.666V34.666C486.047 34.666 487.868 35.3696 488.897 36.5276L490.392 35.1989ZM483.15 32.666C478.712 32.666 475.361 34.4083 473.302 37.9484L475.03 38.9539C476.682 36.1138 479.321 34.666 483.15 34.666V32.666ZM473.166 38.4512V76H475.166V38.4512H473.166ZM474.166 75H460.055V77H474.166V75ZM461.055 76V1H459.055V76H461.055ZM460.055 2H474.166V0H460.055V2ZM473.166 1V28.9297H475.166V1H473.166Z" fill="#B83018"/>
</g>
<defs>
<filter id="filter0_d" x="0.46283" y="0" width="510.246" height="85.9766" filterUnits="userSpaceOnUse" color-interpolation-filters="sRGB">
<feFlood flood-opacity="0" result="BackgroundImageFix"/>
<feColorMatrix in="SourceAlpha" type="matrix" values="0 0 0 0 0 0 0 0 0 0 0 0 0 0 0 0 0 0 127 0"/>
<feOffset dy="4"/>
<feGaussianBlur stdDeviation="2"/>
<feColorMatrix type="matrix" values="0 0 0 0 0 0 0 0 0 0 0 0 0 0 0 0 0 0 0.25 0"/>
<feBlend mode="normal" in2="BackgroundImageFix" result="effect1_dropShadow"/>
<feBlend mode="normal" in="SourceGraphic" in2="effect1_dropShadow" result="shape"/>
</filter>
</defs>
</svg>
